<svg version="1.1" baseProfile="full" shape-rendering="crispEdges" width="195" height="195" xmlns="http://www.w3.org/2000/svg" xmlns:xlink="http://www.w3.org/1999/xlink"><rect x="0" y="0" width="195" height="195" fill="#FFFFFF" />
<rect x="12" y="12" width="21" height="3" fill="#000000" />
<rect x="54" y="12" width="3" height="3" fill="#000000" />
<rect x="63" y="12" width="3" height="6" fill="#000000" />
<rect x="78" y="12" width="3" height="3" fill="#000000" />
<rect x="84" y="12" width="6" height="3" fill="#000000" />
<rect x="93" y="12" width="6" height="3" fill="#000000" />
<rect x="102" y="12" width="6" height="3" fill="#000000" />
<rect x="117" y="12" width="3" height="3" fill="#000000" />
<rect x="123" y="12" width="3" height="3" fill="#000000" />
<rect x="138" y="12" width="9" height="3" fill="#000000" />
<rect x="150" y="12" width="6" height="3" fill="#000000" />
<rect x="162" y="12" width="21" height="3" fill="#000000" />
<rect x="12" y="15" width="3" height="15" fill="#000000" />
<rect x="30" y="15" width="3" height="15" fill="#000000" />
<rect x="36" y="15" width="9" height="3" fill="#000000" />
<rect x="48" y="15" width="12" height="3" fill="#000000" />
<rect x="69" y="15" width="3" height="3" fill="#000000" />
<rect x="84" y="15" width="12" height="3" fill="#000000" />
<rect x="99" y="15" width="3" height="3" fill="#000000" />
<rect x="105" y="15" width="3" height="3" fill="#000000" />
<rect x="111" y="15" width="6" height="3" fill="#000000" />
<rect x="120" y="15" width="3" height="3" fill="#000000" />
<rect x="126" y="15" width="9" height="3" fill="#000000" />
<rect x="147" y="15" width="3" height="3" fill="#000000" />
<rect x="153" y="15" width="3" height="3" fill="#000000" />
<rect x="162" y="15" width="3" height="15" fill="#000000" />
<rect x="180" y="15" width="3" height="15" fill="#000000" />
<rect x="18" y="18" width="9" height="9" fill="#000000" />
<rect x="48" y="18" width="9" height="3" fill="#000000" />
<rect x="63" y="18" width="9" height="3" fill="#000000" />
<rect x="75" y="18" width="3" height="3" fill="#000000" />
<rect x="81" y="18" width="6" height="3" fill="#000000" />
<rect x="96" y="18" width="3" height="3" fill="#000000" />
<rect x="108" y="18" width="9" height="3" fill="#000000" />
<rect x="123" y="18" width="12" height="3" fill="#000000" />
<rect x="144" y="18" width="12" height="3" fill="#000000" />
<rect x="168" y="18" width="9" height="9" fill="#000000" />
<rect x="36" y="21" width="3" height="3" fill="#000000" />
<rect x="45" y="21" width="3" height="3" fill="#000000" />
<rect x="51" y="21" width="3" height="3" fill="#000000" />
<rect x="66" y="21" width="3" height="3" fill="#000000" />
<rect x="81" y="21" width="9" height="3" fill="#000000" />
<rect x="93" y="21" width="3" height="3" fill="#000000" />
<rect x="99" y="21" width="9" height="3" fill="#000000" />
<rect x="117" y="21" width="6" height="3" fill="#000000" />
<rect x="126" y="21" width="3" height="3" fill="#000000" />
<rect x="135" y="21" width="9" height="3" fill="#000000" />
<rect x="153" y="21" width="3" height="6" fill="#000000" />
<rect x="42" y="24" width="3" height="3" fill="#000000" />
<rect x="48" y="24" width="12" height="3" fill="#000000" />
<rect x="63" y="24" width="3" height="3" fill="#000000" />
<rect x="69" y="24" width="6" height="3" fill="#000000" />
<rect x="78" y="24" width="3" height="3" fill="#000000" />
<rect x="84" y="24" width="3" height="3" fill="#000000" />
<rect x="90" y="24" width="15" height="3" fill="#000000" />
<rect x="108" y="24" width="6" height="3" fill="#000000" />
<rect x="123" y="24" width="3" height="3" fill="#000000" />
<rect x="132" y="24" width="3" height="3" fill="#000000" />
<rect x="138" y="24" width="6" height="3" fill="#000000" />
<rect x="147" y="24" width="3" height="3" fill="#000000" />
<rect x="36" y="27" width="3" height="6" fill="#000000" />
<rect x="42" y="27" width="6" height="3" fill="#000000" />
<rect x="54" y="27" width="3" height="6" fill="#000000" />
<rect x="66" y="27" width="3" height="6" fill="#000000" />
<rect x="72" y="27" width="3" height="6" fill="#000000" />
<rect x="78" y="27" width="9" height="3" fill="#000000" />
<rect x="90" y="27" width="3" height="9" fill="#000000" />
<rect x="102" y="27" width="3" height="6" fill="#000000" />
<rect x="111" y="27" width="9" height="3" fill="#000000" />
<rect x="126" y="27" width="3" height="6" fill="#000000" />
<rect x="132" y="27" width="6" height="3" fill="#000000" />
<rect x="144" y="27" width="3" height="6" fill="#000000" />
<rect x="150" y="27" width="3" height="6" fill="#000000" />
<rect x="12" y="30" width="21" height="3" fill="#000000" />
<rect x="42" y="30" width="3" height="3" fill="#000000" />
<rect x="48" y="30" width="3" height="3" fill="#000000" />
<rect x="60" y="30" width="3" height="3" fill="#000000" />
<rect x="78" y="30" width="3" height="3" fill="#000000" />
<rect x="84" y="30" width="3" height="6" fill="#000000" />
<rect x="96" y="30" width="3" height="3" fill="#000000" />
<rect x="108" y="30" width="3" height="3" fill="#000000" />
<rect x="114" y="30" width="3" height="3" fill="#000000" />
<rect x="120" y="30" width="3" height="3" fill="#000000" />
<rect x="132" y="30" width="3" height="6" fill="#000000" />
<rect x="138" y="30" width="3" height="3" fill="#000000" />
<rect x="156" y="30" width="3" height="3" fill="#000000" />
<rect x="162" y="30" width="21" height="3" fill="#000000" />
<rect x="57" y="33" width="3" height="3" fill="#000000" />
<rect x="69" y="33" width="9" height="3" fill="#000000" />
<rect x="102" y="33" width="6" height="3" fill="#000000" />
<rect x="111" y="33" width="12" height="3" fill="#000000" />
<rect x="138" y="33" width="6" height="3" fill="#000000" />
<rect x="153" y="33" width="6" height="3" fill="#000000" />
<rect x="12" y="36" width="15" height="3" fill="#000000" />
<rect x="30" y="36" width="12" height="3" fill="#000000" />
<rect x="45" y="36" width="9" height="3" fill="#000000" />
<rect x="60" y="36" width="15" height="3" fill="#000000" />
<rect x="87" y="36" width="21" height="3" fill="#000000" />
<rect x="111" y="36" width="3" height="3" fill="#000000" />
<rect x="117" y="36" width="6" height="3" fill="#000000" />
<rect x="135" y="36" width="3" height="3" fill="#000000" />
<rect x="141" y="36" width="3" height="3" fill="#000000" />
<rect x="147" y="36" width="9" height="3" fill="#000000" />
<rect x="159" y="36" width="3" height="3" fill="#000000" />
<rect x="165" y="36" width="3" height="6" fill="#000000" />
<rect x="171" y="36" width="3" height="6" fill="#000000" />
<rect x="177" y="36" width="3" height="6" fill="#000000" />
<rect x="12" y="39" width="3" height="6" fill="#000000" />
<rect x="18" y="39" width="3" height="3" fill="#000000" />
<rect x="24" y="39" width="6" height="3" fill="#000000" />
<rect x="36" y="39" width="3" height="6" fill="#000000" />
<rect x="45" y="39" width="6" height="3" fill="#000000" />
<rect x="54" y="39" width="3" height="3" fill="#000000" />
<rect x="63" y="39" width="3" height="3" fill="#000000" />
<rect x="69" y="39" width="3" height="3" fill="#000000" />
<rect x="75" y="39" width="18" height="3" fill="#000000" />
<rect x="99" y="39" width="12" height="3" fill="#000000" />
<rect x="117" y="39" width="9" height="3" fill="#000000" />
<rect x="129" y="39" width="3" height="3" fill="#000000" />
<rect x="135" y="39" width="12" height="3" fill="#000000" />
<rect x="156" y="39" width="6" height="3" fill="#000000" />
<rect x="24" y="42" width="9" height="3" fill="#000000" />
<rect x="42" y="42" width="6" height="3" fill="#000000" />
<rect x="51" y="42" width="12" height="3" fill="#000000" />
<rect x="66" y="42" width="3" height="3" fill="#000000" />
<rect x="78" y="42" width="3" height="3" fill="#000000" />
<rect x="84" y="42" width="6" height="3" fill="#000000" />
<rect x="96" y="42" width="3" height="3" fill="#000000" />
<rect x="126" y="42" width="15" height="3" fill="#000000" />
<rect x="144" y="42" width="9" height="3" fill="#000000" />
<rect x="156" y="42" width="3" height="3" fill="#000000" />
<rect x="162" y="42" width="18" height="3" fill="#000000" />
<rect x="12" y="45" width="9" height="3" fill="#000000" />
<rect x="27" y="45" width="3" height="3" fill="#000000" />
<rect x="42" y="45" width="3" height="3" fill="#000000" />
<rect x="48" y="45" width="3" height="3" fill="#000000" />
<rect x="54" y="45" width="18" height="3" fill="#000000" />
<rect x="75" y="45" width="15" height="3" fill="#000000" />
<rect x="93" y="45" width="9" height="3" fill="#000000" />
<rect x="114" y="45" width="6" height="3" fill="#000000" />
<rect x="123" y="45" width="3" height="3" fill="#000000" />
<rect x="129" y="45" width="3" height="3" fill="#000000" />
<rect x="135" y="45" width="3" height="6" fill="#000000" />
<rect x="150" y="45" width="9" height="3" fill="#000000" />
<rect x="162" y="45" width="21" height="3" fill="#000000" />
<rect x="12" y="48" width="6" height="3" fill="#000000" />
<rect x="24" y="48" width="3" height="3" fill="#000000" />
<rect x="30" y="48" width="3" height="3" fill="#000000" />
<rect x="39" y="48" width="6" height="3" fill="#000000" />
<rect x="48" y="48" width="9" height="3" fill="#000000" />
<rect x="66" y="48" width="3" height="3" fill="#000000" />
<rect x="72" y="48" width="3" height="3" fill="#000000" />
<rect x="78" y="48" width="3" height="3" fill="#000000" />
<rect x="84" y="48" width="3" height="3" fill="#000000" />
<rect x="90" y="48" width="6" height="3" fill="#000000" />
<rect x="99" y="48" width="3" height="3" fill="#000000" />
<rect x="105" y="48" width="3" height="3" fill="#000000" />
<rect x="111" y="48" width="6" height="3" fill="#000000" />
<rect x="120" y="48" width="3" height="3" fill="#000000" />
<rect x="126" y="48" width="3" height="3" fill="#000000" />
<rect x="141" y="48" width="3" height="3" fill="#000000" />
<rect x="147" y="48" width="3" height="3" fill="#000000" />
<rect x="153" y="48" width="3" height="3" fill="#000000" />
<rect x="159" y="48" width="3" height="3" fill="#000000" />
<rect x="171" y="48" width="3" height="3" fill="#000000" />
<rect x="177" y="48" width="3" height="3" fill="#000000" />
<rect x="12" y="51" width="3" height="6" fill="#000000" />
<rect x="27" y="51" width="3" height="3" fill="#000000" />
<rect x="36" y="51" width="3" height="3" fill="#000000" />
<rect x="42" y="51" width="9" height="3" fill="#000000" />
<rect x="63" y="51" width="6" height="6" fill="#000000" />
<rect x="75" y="51" width="3" height="3" fill="#000000" />
<rect x="81" y="51" width="6" height="9" fill="#000000" />
<rect x="93" y="51" width="3" height="3" fill="#000000" />
<rect x="99" y="51" width="12" height="3" fill="#000000" />
<rect x="117" y="51" width="3" height="3" fill="#000000" />
<rect x="123" y="51" width="3" height="3" fill="#000000" />
<rect x="129" y="51" width="3" height="3" fill="#000000" />
<rect x="138" y="51" width="3" height="3" fill="#000000" />
<rect x="144" y="51" width="3" height="9" fill="#000000" />
<rect x="153" y="51" width="9" height="3" fill="#000000" />
<rect x="165" y="51" width="3" height="6" fill="#000000" />
<rect x="174" y="51" width="3" height="3" fill="#000000" />
<rect x="21" y="54" width="15" height="3" fill="#000000" />
<rect x="48" y="54" width="3" height="3" fill="#000000" />
<rect x="54" y="54" width="3" height="3" fill="#000000" />
<rect x="90" y="54" width="9" height="3" fill="#000000" />
<rect x="102" y="54" width="6" height="3" fill="#000000" />
<rect x="111" y="54" width="18" height="3" fill="#000000" />
<rect x="132" y="54" width="6" height="6" fill="#000000" />
<rect x="150" y="54" width="12" height="3" fill="#000000" />
<rect x="171" y="54" width="3" height="3" fill="#000000" />
<rect x="177" y="54" width="3" height="3" fill="#000000" />
<rect x="12" y="57" width="6" height="3" fill="#000000" />
<rect x="27" y="57" width="3" height="3" fill="#000000" />
<rect x="39" y="57" width="6" height="3" fill="#000000" />
<rect x="48" y="57" width="15" height="3" fill="#000000" />
<rect x="66" y="57" width="3" height="6" fill="#000000" />
<rect x="72" y="57" width="6" height="6" fill="#000000" />
<rect x="93" y="57" width="3" height="3" fill="#000000" />
<rect x="99" y="57" width="15" height="3" fill="#000000" />
<rect x="117" y="57" width="3" height="3" fill="#000000" />
<rect x="123" y="57" width="3" height="3" fill="#000000" />
<rect x="156" y="57" width="3" height="3" fill="#000000" />
<rect x="162" y="57" width="3" height="3" fill="#000000" />
<rect x="168" y="57" width="15" height="3" fill="#000000" />
<rect x="15" y="60" width="3" height="3" fill="#000000" />
<rect x="21" y="60" width="3" height="3" fill="#000000" />
<rect x="27" y="60" width="6" height="3" fill="#000000" />
<rect x="36" y="60" width="3" height="3" fill="#000000" />
<rect x="42" y="60" width="6" height="3" fill="#000000" />
<rect x="51" y="60" width="3" height="3" fill="#000000" />
<rect x="60" y="60" width="3" height="3" fill="#000000" />
<rect x="81" y="60" width="3" height="3" fill="#000000" />
<rect x="87" y="60" width="6" height="3" fill="#000000" />
<rect x="96" y="60" width="3" height="3" fill="#000000" />
<rect x="120" y="60" width="3" height="6" fill="#000000" />
<rect x="129" y="60" width="3" height="3" fill="#000000" />
<rect x="135" y="60" width="9" height="3" fill="#000000" />
<rect x="147" y="60" width="3" height="6" fill="#000000" />
<rect x="153" y="60" width="3" height="3" fill="#000000" />
<rect x="165" y="60" width="3" height="3" fill="#000000" />
<rect x="180" y="60" width="3" height="6" fill="#000000" />
<rect x="21" y="63" width="6" height="3" fill="#000000" />
<rect x="54" y="63" width="6" height="3" fill="#000000" />
<rect x="69" y="63" width="3" height="3" fill="#000000" />
<rect x="78" y="63" width="3" height="3" fill="#000000" />
<rect x="84" y="63" width="6" height="3" fill="#000000" />
<rect x="93" y="63" width="15" height="3" fill="#000000" />
<rect x="111" y="63" width="3" height="3" fill="#000000" />
<rect x="138" y="63" width="6" height="3" fill="#000000" />
<rect x="153" y="63" width="6" height="3" fill="#000000" />
<rect x="168" y="63" width="3" height="3" fill="#000000" />
<rect x="174" y="63" width="3" height="3" fill="#000000" />
<rect x="12" y="66" width="6" height="3" fill="#000000" />
<rect x="21" y="66" width="3" height="3" fill="#000000" />
<rect x="30" y="66" width="12" height="3" fill="#000000" />
<rect x="45" y="66" width="3" height="6" fill="#000000" />
<rect x="57" y="66" width="3" height="3" fill="#000000" />
<rect x="69" y="66" width="9" height="3" fill="#000000" />
<rect x="81" y="66" width="6" height="3" fill="#000000" />
<rect x="90" y="66" width="3" height="3" fill="#000000" />
<rect x="96" y="66" width="3" height="3" fill="#000000" />
<rect x="114" y="66" width="3" height="6" fill="#000000" />
<rect x="120" y="66" width="9" height="3" fill="#000000" />
<rect x="132" y="66" width="6" height="3" fill="#000000" />
<rect x="150" y="66" width="18" height="3" fill="#000000" />
<rect x="171" y="66" width="3" height="3" fill="#000000" />
<rect x="177" y="66" width="3" height="3" fill="#000000" />
<rect x="12" y="69" width="12" height="3" fill="#000000" />
<rect x="33" y="69" width="3" height="3" fill="#000000" />
<rect x="39" y="69" width="3" height="3" fill="#000000" />
<rect x="51" y="69" width="3" height="3" fill="#000000" />
<rect x="66" y="69" width="3" height="3" fill="#000000" />
<rect x="78" y="69" width="6" height="3" fill="#000000" />
<rect x="87" y="69" width="3" height="3" fill="#000000" />
<rect x="93" y="69" width="18" height="3" fill="#000000" />
<rect x="129" y="69" width="12" height="3" fill="#000000" />
<rect x="144" y="69" width="9" height="3" fill="#000000" />
<rect x="162" y="69" width="3" height="3" fill="#000000" />
<rect x="174" y="69" width="3" height="3" fill="#000000" />
<rect x="12" y="72" width="3" height="12" fill="#000000" />
<rect x="18" y="72" width="3" height="3" fill="#000000" />
<rect x="30" y="72" width="3" height="3" fill="#000000" />
<rect x="36" y="72" width="3" height="3" fill="#000000" />
<rect x="42" y="72" width="3" height="3" fill="#000000" />
<rect x="48" y="72" width="3" height="3" fill="#000000" />
<rect x="57" y="72" width="3" height="3" fill="#000000" />
<rect x="66" y="72" width="6" height="3" fill="#000000" />
<rect x="84" y="72" width="3" height="3" fill="#000000" />
<rect x="90" y="72" width="3" height="3" fill="#000000" />
<rect x="99" y="72" width="3" height="3" fill="#000000" />
<rect x="120" y="72" width="3" height="3" fill="#000000" />
<rect x="126" y="72" width="3" height="3" fill="#000000" />
<rect x="138" y="72" width="6" height="3" fill="#000000" />
<rect x="156" y="72" width="6" height="3" fill="#000000" />
<rect x="171" y="72" width="3" height="3" fill="#000000" />
<rect x="180" y="72" width="3" height="6" fill="#000000" />
<rect x="39" y="75" width="3" height="3" fill="#000000" />
<rect x="51" y="75" width="3" height="3" fill="#000000" />
<rect x="60" y="75" width="3" height="3" fill="#000000" />
<rect x="75" y="75" width="3" height="6" fill="#000000" />
<rect x="81" y="75" width="3" height="3" fill="#000000" />
<rect x="87" y="75" width="6" height="3" fill="#000000" />
<rect x="102" y="75" width="9" height="3" fill="#000000" />
<rect x="120" y="75" width="6" height="3" fill="#000000" />
<rect x="132" y="75" width="3" height="3" fill="#000000" />
<rect x="138" y="75" width="3" height="3" fill="#000000" />
<rect x="144" y="75" width="3" height="3" fill="#000000" />
<rect x="153" y="75" width="9" height="3" fill="#000000" />
<rect x="168" y="75" width="3" height="3" fill="#000000" />
<rect x="30" y="78" width="9" height="3" fill="#000000" />
<rect x="42" y="78" width="6" height="3" fill="#000000" />
<rect x="51" y="78" width="21" height="3" fill="#000000" />
<rect x="90" y="78" width="12" height="3" fill="#000000" />
<rect x="111" y="78" width="6" height="3" fill="#000000" />
<rect x="123" y="78" width="3" height="3" fill="#000000" />
<rect x="129" y="78" width="3" height="3" fill="#000000" />
<rect x="135" y="78" width="3" height="3" fill="#000000" />
<rect x="147" y="78" width="6" height="3" fill="#000000" />
<rect x="156" y="78" width="3" height="3" fill="#000000" />
<rect x="162" y="78" width="6" height="3" fill="#000000" />
<rect x="171" y="78" width="9" height="3" fill="#000000" />
<rect x="21" y="81" width="3" height="3" fill="#000000" />
<rect x="33" y="81" width="15" height="3" fill="#000000" />
<rect x="51" y="81" width="3" height="3" fill="#000000" />
<rect x="60" y="81" width="9" height="3" fill="#000000" />
<rect x="81" y="81" width="3" height="3" fill="#000000" />
<rect x="87" y="81" width="12" height="3" fill="#000000" />
<rect x="102" y="81" width="12" height="3" fill="#000000" />
<rect x="120" y="81" width="3" height="3" fill="#000000" />
<rect x="129" y="81" width="6" height="3" fill="#000000" />
<rect x="144" y="81" width="15" height="3" fill="#000000" />
<rect x="168" y="81" width="15" height="3" fill="#000000" />
<rect x="15" y="84" width="6" height="3" fill="#000000" />
<rect x="24" y="84" width="9" height="3" fill="#000000" />
<rect x="39" y="84" width="6" height="3" fill="#000000" />
<rect x="48" y="84" width="3" height="3" fill="#000000" />
<rect x="54" y="84" width="3" height="3" fill="#000000" />
<rect x="63" y="84" width="9" height="6" fill="#000000" />
<rect x="75" y="84" width="3" height="3" fill="#000000" />
<rect x="84" y="84" width="3" height="3" fill="#000000" />
<rect x="93" y="84" width="3" height="6" fill="#000000" />
<rect x="99" y="84" width="3" height="3" fill="#000000" />
<rect x="105" y="84" width="3" height="3" fill="#000000" />
<rect x="117" y="84" width="6" height="3" fill="#000000" />
<rect x="126" y="84" width="3" height="3" fill="#000000" />
<rect x="135" y="84" width="9" height="3" fill="#000000" />
<rect x="147" y="84" width="6" height="3" fill="#000000" />
<rect x="162" y="84" width="6" height="3" fill="#000000" />
<rect x="177" y="84" width="3" height="3" fill="#000000" />
<rect x="12" y="87" width="9" height="3" fill="#000000" />
<rect x="33" y="87" width="24" height="3" fill="#000000" />
<rect x="75" y="87" width="15" height="3" fill="#000000" />
<rect x="99" y="87" width="6" height="3" fill="#000000" />
<rect x="108" y="87" width="6" height="3" fill="#000000" />
<rect x="117" y="87" width="9" height="3" fill="#000000" />
<rect x="129" y="87" width="3" height="6" fill="#000000" />
<rect x="135" y="87" width="12" height="3" fill="#000000" />
<rect x="153" y="87" width="6" height="3" fill="#000000" />
<rect x="165" y="87" width="3" height="3" fill="#000000" />
<rect x="174" y="87" width="9" height="3" fill="#000000" />
<rect x="18" y="90" width="21" height="3" fill="#000000" />
<rect x="45" y="90" width="9" height="3" fill="#000000" />
<rect x="60" y="90" width="6" height="3" fill="#000000" />
<rect x="72" y="90" width="6" height="3" fill="#000000" />
<rect x="84" y="90" width="3" height="3" fill="#000000" />
<rect x="90" y="90" width="18" height="3" fill="#000000" />
<rect x="114" y="90" width="12" height="3" fill="#000000" />
<rect x="135" y="90" width="9" height="3" fill="#000000" />
<rect x="147" y="90" width="6" height="3" fill="#000000" />
<rect x="156" y="90" width="18" height="3" fill="#000000" />
<rect x="24" y="93" width="3" height="3" fill="#000000" />
<rect x="36" y="93" width="9" height="3" fill="#000000" />
<rect x="48" y="93" width="9" height="3" fill="#000000" />
<rect x="72" y="93" width="3" height="3" fill="#000000" />
<rect x="84" y="93" width="9" height="3" fill="#000000" />
<rect x="102" y="93" width="3" height="3" fill="#000000" />
<rect x="108" y="93" width="3" height="3" fill="#000000" />
<rect x="117" y="93" width="9" height="3" fill="#000000" />
<rect x="132" y="93" width="3" height="3" fill="#000000" />
<rect x="138" y="93" width="9" height="3" fill="#000000" />
<rect x="156" y="93" width="3" height="6" fill="#000000" />
<rect x="168" y="93" width="3" height="6" fill="#000000" />
<rect x="174" y="93" width="3" height="3" fill="#000000" />
<rect x="15" y="96" width="3" height="3" fill="#000000" />
<rect x="21" y="96" width="6" height="6" fill="#000000" />
<rect x="30" y="96" width="3" height="3" fill="#000000" />
<rect x="36" y="96" width="3" height="6" fill="#000000" />
<rect x="57" y="96" width="9" height="3" fill="#000000" />
<rect x="75" y="96" width="3" height="3" fill="#000000" />
<rect x="84" y="96" width="3" height="3" fill="#000000" />
<rect x="90" y="96" width="3" height="6" fill="#000000" />
<rect x="96" y="96" width="3" height="3" fill="#000000" />
<rect x="102" y="96" width="6" height="3" fill="#000000" />
<rect x="117" y="96" width="6" height="3" fill="#000000" />
<rect x="135" y="96" width="9" height="3" fill="#000000" />
<rect x="162" y="96" width="3" height="3" fill="#000000" />
<rect x="177" y="96" width="6" height="3" fill="#000000" />
<rect x="12" y="99" width="3" height="3" fill="#000000" />
<rect x="42" y="99" width="6" height="3" fill="#000000" />
<rect x="66" y="99" width="6" height="3" fill="#000000" />
<rect x="81" y="99" width="6" height="3" fill="#000000" />
<rect x="102" y="99" width="3" height="3" fill="#000000" />
<rect x="117" y="99" width="3" height="3" fill="#000000" />
<rect x="123" y="99" width="3" height="3" fill="#000000" />
<rect x="132" y="99" width="12" height="3" fill="#000000" />
<rect x="153" y="99" width="6" height="3" fill="#000000" />
<rect x="168" y="99" width="9" height="3" fill="#000000" />
<rect x="15" y="102" width="27" height="3" fill="#000000" />
<rect x="48" y="102" width="6" height="3" fill="#000000" />
<rect x="57" y="102" width="3" height="3" fill="#000000" />
<rect x="63" y="102" width="3" height="3" fill="#000000" />
<rect x="72" y="102" width="3" height="3" fill="#000000" />
<rect x="87" y="102" width="18" height="3" fill="#000000" />
<rect x="108" y="102" width="3" height="3" fill="#000000" />
<rect x="114" y="102" width="18" height="3" fill="#000000" />
<rect x="138" y="102" width="6" height="3" fill="#000000" />
<rect x="150" y="102" width="30" height="3" fill="#000000" />
<rect x="12" y="105" width="6" height="6" fill="#000000" />
<rect x="27" y="105" width="3" height="3" fill="#000000" />
<rect x="33" y="105" width="12" height="3" fill="#000000" />
<rect x="48" y="105" width="3" height="3" fill="#000000" />
<rect x="54" y="105" width="6" height="3" fill="#000000" />
<rect x="63" y="105" width="6" height="3" fill="#000000" />
<rect x="75" y="105" width="3" height="3" fill="#000000" />
<rect x="81" y="105" width="6" height="3" fill="#000000" />
<rect x="90" y="105" width="6" height="3" fill="#000000" />
<rect x="99" y="105" width="3" height="3" fill="#000000" />
<rect x="108" y="105" width="6" height="3" fill="#000000" />
<rect x="117" y="105" width="3" height="3" fill="#000000" />
<rect x="123" y="105" width="3" height="3" fill="#000000" />
<rect x="129" y="105" width="12" height="3" fill="#000000" />
<rect x="144" y="105" width="3" height="3" fill="#000000" />
<rect x="153" y="105" width="12" height="3" fill="#000000" />
<rect x="168" y="105" width="3" height="3" fill="#000000" />
<rect x="174" y="105" width="6" height="3" fill="#000000" />
<rect x="21" y="108" width="6" height="3" fill="#000000" />
<rect x="30" y="108" width="9" height="3" fill="#000000" />
<rect x="42" y="108" width="9" height="3" fill="#000000" />
<rect x="54" y="108" width="3" height="3" fill="#000000" />
<rect x="60" y="108" width="9" height="3" fill="#000000" />
<rect x="72" y="108" width="6" height="3" fill="#000000" />
<rect x="90" y="108" width="3" height="3" fill="#000000" />
<rect x="96" y="108" width="12" height="3" fill="#000000" />
<rect x="111" y="108" width="3" height="3" fill="#000000" />
<rect x="120" y="108" width="6" height="3" fill="#000000" />
<rect x="129" y="108" width="3" height="6" fill="#000000" />
<rect x="138" y="108" width="6" height="6" fill="#000000" />
<rect x="147" y="108" width="3" height="6" fill="#000000" />
<rect x="156" y="108" width="3" height="3" fill="#000000" />
<rect x="162" y="108" width="3" height="3" fill="#000000" />
<rect x="168" y="108" width="6" height="3" fill="#000000" />
<rect x="177" y="108" width="3" height="3" fill="#000000" />
<rect x="12" y="111" width="3" height="3" fill="#000000" />
<rect x="18" y="111" width="3" height="3" fill="#000000" />
<rect x="33" y="111" width="3" height="3" fill="#000000" />
<rect x="39" y="111" width="12" height="3" fill="#000000" />
<rect x="57" y="111" width="3" height="3" fill="#000000" />
<rect x="69" y="111" width="3" height="3" fill="#000000" />
<rect x="78" y="111" width="3" height="3" fill="#000000" />
<rect x="84" y="111" width="3" height="3" fill="#000000" />
<rect x="90" y="111" width="6" height="3" fill="#000000" />
<rect x="99" y="111" width="3" height="3" fill="#000000" />
<rect x="117" y="111" width="6" height="3" fill="#000000" />
<rect x="153" y="111" width="3" height="3" fill="#000000" />
<rect x="159" y="111" width="3" height="6" fill="#000000" />
<rect x="171" y="111" width="12" height="3" fill="#000000" />
<rect x="18" y="114" width="6" height="3" fill="#000000" />
<rect x="27" y="114" width="6" height="3" fill="#000000" />
<rect x="45" y="114" width="6" height="3" fill="#000000" />
<rect x="54" y="114" width="3" height="3" fill="#000000" />
<rect x="63" y="114" width="3" height="3" fill="#000000" />
<rect x="72" y="114" width="18" height="3" fill="#000000" />
<rect x="99" y="114" width="6" height="3" fill="#000000" />
<rect x="111" y="114" width="6" height="3" fill="#000000" />
<rect x="120" y="114" width="9" height="3" fill="#000000" />
<rect x="135" y="114" width="3" height="3" fill="#000000" />
<rect x="147" y="114" width="6" height="3" fill="#000000" />
<rect x="165" y="114" width="6" height="3" fill="#000000" />
<rect x="24" y="117" width="6" height="3" fill="#000000" />
<rect x="33" y="117" width="3" height="3" fill="#000000" />
<rect x="42" y="117" width="3" height="6" fill="#000000" />
<rect x="48" y="117" width="3" height="3" fill="#000000" />
<rect x="54" y="117" width="6" height="3" fill="#000000" />
<rect x="63" y="117" width="6" height="3" fill="#000000" />
<rect x="78" y="117" width="33" height="3" fill="#000000" />
<rect x="114" y="117" width="3" height="3" fill="#000000" />
<rect x="132" y="117" width="3" height="3" fill="#000000" />
<rect x="138" y="117" width="21" height="3" fill="#000000" />
<rect x="162" y="117" width="6" height="3" fill="#000000" />
<rect x="171" y="117" width="9" height="3" fill="#000000" />
<rect x="15" y="120" width="3" height="3" fill="#000000" />
<rect x="21" y="120" width="18" height="3" fill="#000000" />
<rect x="54" y="120" width="3" height="3" fill="#000000" />
<rect x="66" y="120" width="3" height="3" fill="#000000" />
<rect x="81" y="120" width="6" height="3" fill="#000000" />
<rect x="93" y="120" width="3" height="6" fill="#000000" />
<rect x="99" y="120" width="6" height="3" fill="#000000" />
<rect x="111" y="120" width="12" height="3" fill="#000000" />
<rect x="126" y="120" width="3" height="3" fill="#000000" />
<rect x="138" y="120" width="6" height="3" fill="#000000" />
<rect x="162" y="120" width="3" height="3" fill="#000000" />
<rect x="168" y="120" width="3" height="3" fill="#000000" />
<rect x="174" y="120" width="6" height="3" fill="#000000" />
<rect x="18" y="123" width="3" height="3" fill="#000000" />
<rect x="27" y="123" width="3" height="3" fill="#000000" />
<rect x="45" y="123" width="3" height="3" fill="#000000" />
<rect x="57" y="123" width="3" height="3" fill="#000000" />
<rect x="63" y="123" width="3" height="3" fill="#000000" />
<rect x="69" y="123" width="12" height="3" fill="#000000" />
<rect x="84" y="123" width="3" height="3" fill="#000000" />
<rect x="117" y="123" width="3" height="3" fill="#000000" />
<rect x="123" y="123" width="3" height="3" fill="#000000" />
<rect x="129" y="123" width="15" height="3" fill="#000000" />
<rect x="147" y="123" width="3" height="3" fill="#000000" />
<rect x="156" y="123" width="6" height="6" fill="#000000" />
<rect x="177" y="123" width="6" height="3" fill="#000000" />
<rect x="12" y="126" width="3" height="3" fill="#000000" />
<rect x="18" y="126" width="9" height="3" fill="#000000" />
<rect x="30" y="126" width="6" height="3" fill="#000000" />
<rect x="42" y="126" width="3" height="3" fill="#000000" />
<rect x="48" y="126" width="6" height="3" fill="#000000" />
<rect x="63" y="126" width="6" height="3" fill="#000000" />
<rect x="72" y="126" width="3" height="3" fill="#000000" />
<rect x="78" y="126" width="15" height="3" fill="#000000" />
<rect x="102" y="126" width="6" height="3" fill="#000000" />
<rect x="111" y="126" width="3" height="3" fill="#000000" />
<rect x="120" y="126" width="3" height="3" fill="#000000" />
<rect x="126" y="126" width="3" height="3" fill="#000000" />
<rect x="132" y="126" width="3" height="6" fill="#000000" />
<rect x="150" y="126" width="3" height="3" fill="#000000" />
<rect x="165" y="126" width="6" height="3" fill="#000000" />
<rect x="174" y="126" width="9" height="3" fill="#000000" />
<rect x="15" y="129" width="6" height="3" fill="#000000" />
<rect x="24" y="129" width="3" height="6" fill="#000000" />
<rect x="33" y="129" width="12" height="3" fill="#000000" />
<rect x="57" y="129" width="3" height="3" fill="#000000" />
<rect x="66" y="129" width="9" height="3" fill="#000000" />
<rect x="84" y="129" width="3" height="3" fill="#000000" />
<rect x="93" y="129" width="3" height="3" fill="#000000" />
<rect x="99" y="129" width="3" height="3" fill="#000000" />
<rect x="120" y="129" width="6" height="3" fill="#000000" />
<rect x="147" y="129" width="9" height="3" fill="#000000" />
<rect x="162" y="129" width="3" height="3" fill="#000000" />
<rect x="168" y="129" width="9" height="3" fill="#000000" />
<rect x="18" y="132" width="3" height="6" fill="#000000" />
<rect x="30" y="132" width="12" height="3" fill="#000000" />
<rect x="45" y="132" width="3" height="3" fill="#000000" />
<rect x="54" y="132" width="3" height="3" fill="#000000" />
<rect x="60" y="132" width="15" height="3" fill="#000000" />
<rect x="81" y="132" width="3" height="3" fill="#000000" />
<rect x="96" y="132" width="3" height="3" fill="#000000" />
<rect x="102" y="132" width="6" height="3" fill="#000000" />
<rect x="117" y="132" width="9" height="3" fill="#000000" />
<rect x="141" y="132" width="3" height="3" fill="#000000" />
<rect x="150" y="132" width="3" height="3" fill="#000000" />
<rect x="156" y="132" width="9" height="3" fill="#000000" />
<rect x="168" y="132" width="6" height="3" fill="#000000" />
<rect x="24" y="135" width="6" height="3" fill="#000000" />
<rect x="33" y="135" width="6" height="3" fill="#000000" />
<rect x="48" y="135" width="9" height="3" fill="#000000" />
<rect x="69" y="135" width="3" height="3" fill="#000000" />
<rect x="78" y="135" width="9" height="3" fill="#000000" />
<rect x="90" y="135" width="3" height="3" fill="#000000" />
<rect x="102" y="135" width="3" height="3" fill="#000000" />
<rect x="117" y="135" width="3" height="3" fill="#000000" />
<rect x="123" y="135" width="3" height="3" fill="#000000" />
<rect x="129" y="135" width="15" height="3" fill="#000000" />
<rect x="153" y="135" width="3" height="3" fill="#000000" />
<rect x="162" y="135" width="6" height="3" fill="#000000" />
<rect x="171" y="135" width="3" height="3" fill="#000000" />
<rect x="177" y="135" width="6" height="3" fill="#000000" />
<rect x="15" y="138" width="3" height="3" fill="#000000" />
<rect x="21" y="138" width="6" height="3" fill="#000000" />
<rect x="30" y="138" width="3" height="3" fill="#000000" />
<rect x="36" y="138" width="6" height="3" fill="#000000" />
<rect x="45" y="138" width="3" height="3" fill="#000000" />
<rect x="51" y="138" width="6" height="3" fill="#000000" />
<rect x="60" y="138" width="3" height="3" fill="#000000" />
<rect x="66" y="138" width="3" height="3" fill="#000000" />
<rect x="72" y="138" width="3" height="3" fill="#000000" />
<rect x="78" y="138" width="3" height="3" fill="#000000" />
<rect x="99" y="138" width="9" height="3" fill="#000000" />
<rect x="111" y="138" width="12" height="3" fill="#000000" />
<rect x="129" y="138" width="9" height="3" fill="#000000" />
<rect x="141" y="138" width="6" height="3" fill="#000000" />
<rect x="165" y="138" width="3" height="3" fill="#000000" />
<rect x="171" y="138" width="9" height="3" fill="#000000" />
<rect x="12" y="141" width="12" height="3" fill="#000000" />
<rect x="33" y="141" width="9" height="3" fill="#000000" />
<rect x="45" y="141" width="9" height="3" fill="#000000" />
<rect x="63" y="141" width="6" height="3" fill="#000000" />
<rect x="72" y="141" width="9" height="3" fill="#000000" />
<rect x="87" y="141" width="9" height="3" fill="#000000" />
<rect x="99" y="141" width="3" height="3" fill="#000000" />
<rect x="117" y="141" width="3" height="3" fill="#000000" />
<rect x="123" y="141" width="3" height="3" fill="#000000" />
<rect x="132" y="141" width="3" height="3" fill="#000000" />
<rect x="138" y="141" width="6" height="6" fill="#000000" />
<rect x="147" y="141" width="3" height="3" fill="#000000" />
<rect x="153" y="141" width="15" height="3" fill="#000000" />
<rect x="171" y="141" width="12" height="3" fill="#000000" />
<rect x="12" y="144" width="3" height="3" fill="#000000" />
<rect x="24" y="144" width="12" height="3" fill="#000000" />
<rect x="45" y="144" width="3" height="3" fill="#000000" />
<rect x="60" y="144" width="3" height="3" fill="#000000" />
<rect x="66" y="144" width="3" height="3" fill="#000000" />
<rect x="78" y="144" width="9" height="3" fill="#000000" />
<rect x="105" y="144" width="3" height="3" fill="#000000" />
<rect x="111" y="144" width="3" height="3" fill="#000000" />
<rect x="117" y="144" width="6" height="3" fill="#000000" />
<rect x="150" y="144" width="3" height="3" fill="#000000" />
<rect x="168" y="144" width="6" height="3" fill="#000000" />
<rect x="180" y="144" width="3" height="3" fill="#000000" />
<rect x="21" y="147" width="9" height="3" fill="#000000" />
<rect x="42" y="147" width="3" height="3" fill="#000000" />
<rect x="48" y="147" width="6" height="3" fill="#000000" />
<rect x="57" y="147" width="3" height="3" fill="#000000" />
<rect x="63" y="147" width="9" height="3" fill="#000000" />
<rect x="75" y="147" width="3" height="3" fill="#000000" />
<rect x="81" y="147" width="6" height="3" fill="#000000" />
<rect x="99" y="147" width="9" height="3" fill="#000000" />
<rect x="117" y="147" width="3" height="3" fill="#000000" />
<rect x="123" y="147" width="3" height="3" fill="#000000" />
<rect x="129" y="147" width="12" height="3" fill="#000000" />
<rect x="153" y="147" width="3" height="3" fill="#000000" />
<rect x="159" y="147" width="3" height="3" fill="#000000" />
<rect x="174" y="147" width="9" height="3" fill="#000000" />
<rect x="12" y="150" width="3" height="3" fill="#000000" />
<rect x="18" y="150" width="3" height="3" fill="#000000" />
<rect x="27" y="150" width="9" height="3" fill="#000000" />
<rect x="39" y="150" width="18" height="3" fill="#000000" />
<rect x="66" y="150" width="15" height="3" fill="#000000" />
<rect x="84" y="150" width="12" height="3" fill="#000000" />
<rect x="102" y="150" width="3" height="3" fill="#000000" />
<rect x="114" y="150" width="6" height="3" fill="#000000" />
<rect x="126" y="150" width="3" height="3" fill="#000000" />
<rect x="150" y="150" width="3" height="3" fill="#000000" />
<rect x="165" y="150" width="3" height="3" fill="#000000" />
<rect x="171" y="150" width="6" height="3" fill="#000000" />
<rect x="12" y="153" width="15" height="3" fill="#000000" />
<rect x="36" y="153" width="15" height="3" fill="#000000" />
<rect x="57" y="153" width="3" height="3" fill="#000000" />
<rect x="63" y="153" width="12" height="3" fill="#000000" />
<rect x="81" y="153" width="3" height="6" fill="#000000" />
<rect x="96" y="153" width="6" height="3" fill="#000000" />
<rect x="105" y="153" width="6" height="3" fill="#000000" />
<rect x="117" y="153" width="3" height="3" fill="#000000" />
<rect x="123" y="153" width="3" height="3" fill="#000000" />
<rect x="129" y="153" width="6" height="3" fill="#000000" />
<rect x="144" y="153" width="3" height="3" fill="#000000" />
<rect x="150" y="153" width="6" height="3" fill="#000000" />
<rect x="159" y="153" width="12" height="3" fill="#000000" />
<rect x="174" y="153" width="3" height="3" fill="#000000" />
<rect x="180" y="153" width="3" height="3" fill="#000000" />
<rect x="30" y="156" width="3" height="3" fill="#000000" />
<rect x="42" y="156" width="21" height="3" fill="#000000" />
<rect x="66" y="156" width="3" height="3" fill="#000000" />
<rect x="72" y="156" width="6" height="3" fill="#000000" />
<rect x="87" y="156" width="18" height="3" fill="#000000" />
<rect x="111" y="156" width="6" height="3" fill="#000000" />
<rect x="120" y="156" width="9" height="3" fill="#000000" />
<rect x="138" y="156" width="6" height="3" fill="#000000" />
<rect x="156" y="156" width="18" height="3" fill="#000000" />
<rect x="36" y="159" width="3" height="6" fill="#000000" />
<rect x="45" y="159" width="3" height="3" fill="#000000" />
<rect x="63" y="159" width="3" height="3" fill="#000000" />
<rect x="69" y="159" width="3" height="3" fill="#000000" />
<rect x="75" y="159" width="6" height="3" fill="#000000" />
<rect x="84" y="159" width="9" height="3" fill="#000000" />
<rect x="102" y="159" width="12" height="3" fill="#000000" />
<rect x="117" y="159" width="6" height="3" fill="#000000" />
<rect x="135" y="159" width="6" height="3" fill="#000000" />
<rect x="144" y="159" width="6" height="3" fill="#000000" />
<rect x="156" y="159" width="3" height="3" fill="#000000" />
<rect x="168" y="159" width="9" height="3" fill="#000000" />
<rect x="180" y="159" width="3" height="3" fill="#000000" />
<rect x="12" y="162" width="21" height="3" fill="#000000" />
<rect x="42" y="162" width="6" height="3" fill="#000000" />
<rect x="54" y="162" width="9" height="3" fill="#000000" />
<rect x="66" y="162" width="6" height="3" fill="#000000" />
<rect x="75" y="162" width="3" height="3" fill="#000000" />
<rect x="81" y="162" width="3" height="3" fill="#000000" />
<rect x="90" y="162" width="3" height="6" fill="#000000" />
<rect x="96" y="162" width="3" height="3" fill="#000000" />
<rect x="102" y="162" width="3" height="3" fill="#000000" />
<rect x="114" y="162" width="6" height="3" fill="#000000" />
<rect x="126" y="162" width="3" height="3" fill="#000000" />
<rect x="141" y="162" width="3" height="3" fill="#000000" />
<rect x="150" y="162" width="9" height="3" fill="#000000" />
<rect x="162" y="162" width="3" height="3" fill="#000000" />
<rect x="168" y="162" width="12" height="6" fill="#000000" />
<rect x="12" y="165" width="3" height="15" fill="#000000" />
<rect x="30" y="165" width="3" height="15" fill="#000000" />
<rect x="39" y="165" width="3" height="3" fill="#000000" />
<rect x="45" y="165" width="6" height="6" fill="#000000" />
<rect x="54" y="165" width="6" height="6" fill="#000000" />
<rect x="63" y="165" width="3" height="3" fill="#000000" />
<rect x="69" y="165" width="6" height="3" fill="#000000" />
<rect x="78" y="165" width="3" height="3" fill="#000000" />
<rect x="84" y="165" width="3" height="3" fill="#000000" />
<rect x="102" y="165" width="9" height="3" fill="#000000" />
<rect x="129" y="165" width="12" height="3" fill="#000000" />
<rect x="144" y="165" width="3" height="3" fill="#000000" />
<rect x="156" y="165" width="3" height="3" fill="#000000" />
<rect x="18" y="168" width="9" height="9" fill="#000000" />
<rect x="36" y="168" width="3" height="3" fill="#000000" />
<rect x="63" y="168" width="9" height="3" fill="#000000" />
<rect x="84" y="168" width="21" height="3" fill="#000000" />
<rect x="111" y="168" width="15" height="3" fill="#000000" />
<rect x="135" y="168" width="3" height="3" fill="#000000" />
<rect x="141" y="168" width="3" height="3" fill="#000000" />
<rect x="150" y="168" width="24" height="3" fill="#000000" />
<rect x="36" y="171" width="6" height="3" fill="#000000" />
<rect x="48" y="171" width="3" height="3" fill="#000000" />
<rect x="54" y="171" width="3" height="3" fill="#000000" />
<rect x="60" y="171" width="3" height="3" fill="#000000" />
<rect x="66" y="171" width="3" height="3" fill="#000000" />
<rect x="75" y="171" width="3" height="3" fill="#000000" />
<rect x="81" y="171" width="3" height="3" fill="#000000" />
<rect x="87" y="171" width="6" height="3" fill="#000000" />
<rect x="96" y="171" width="3" height="3" fill="#000000" />
<rect x="102" y="171" width="3" height="3" fill="#000000" />
<rect x="117" y="171" width="9" height="6" fill="#000000" />
<rect x="138" y="171" width="6" height="3" fill="#000000" />
<rect x="147" y="171" width="3" height="3" fill="#000000" />
<rect x="159" y="171" width="3" height="3" fill="#000000" />
<rect x="168" y="171" width="3" height="3" fill="#000000" />
<rect x="36" y="174" width="3" height="9" fill="#000000" />
<rect x="42" y="174" width="9" height="6" fill="#000000" />
<rect x="54" y="174" width="9" height="3" fill="#000000" />
<rect x="66" y="174" width="6" height="3" fill="#000000" />
<rect x="75" y="174" width="6" height="3" fill="#000000" />
<rect x="90" y="174" width="6" height="3" fill="#000000" />
<rect x="105" y="174" width="9" height="3" fill="#000000" />
<rect x="129" y="174" width="3" height="3" fill="#000000" />
<rect x="135" y="174" width="3" height="3" fill="#000000" />
<rect x="141" y="174" width="3" height="3" fill="#000000" />
<rect x="150" y="174" width="9" height="3" fill="#000000" />
<rect x="174" y="174" width="3" height="3" fill="#000000" />
<rect x="54" y="177" width="3" height="3" fill="#000000" />
<rect x="60" y="177" width="9" height="3" fill="#000000" />
<rect x="75" y="177" width="9" height="3" fill="#000000" />
<rect x="93" y="177" width="3" height="3" fill="#000000" />
<rect x="99" y="177" width="9" height="6" fill="#000000" />
<rect x="123" y="177" width="3" height="3" fill="#000000" />
<rect x="129" y="177" width="12" height="3" fill="#000000" />
<rect x="144" y="177" width="6" height="3" fill="#000000" />
<rect x="171" y="177" width="6" height="3" fill="#000000" />
<rect x="12" y="180" width="21" height="3" fill="#000000" />
<rect x="42" y="180" width="6" height="3" fill="#000000" />
<rect x="51" y="180" width="3" height="3" fill="#000000" />
<rect x="60" y="180" width="15" height="3" fill="#000000" />
<rect x="81" y="180" width="3" height="3" fill="#000000" />
<rect x="87" y="180" width="3" height="3" fill="#000000" />
<rect x="111" y="180" width="3" height="3" fill="#000000" />
<rect x="117" y="180" width="6" height="3" fill="#000000" />
<rect x="126" y="180" width="3" height="3" fill="#000000" />
<rect x="156" y="180" width="12" height="3" fill="#000000" />
<rect x="177" y="180" width="3" height="3" fill="#000000" />
</svg>